<?xml version="1.0" standalone="no"?>
<!DOCTYPE svg PUBLIC "-//W3C//DTD SVG 20010904//EN"
 "http://www.w3.org/TR/2001/REC-SVG-20010904/DTD/svg10.dtd">
<svg version="1.0" xmlns="http://www.w3.org/2000/svg"
 width="800.000000pt" height="800.000000pt" viewBox="0 0 800.000000 800.000000"
 preserveAspectRatio="xMidYMid meet">
<metadata>
Created by potrace 1.11, written by Peter Selinger 2001-2013
</metadata>
<g transform="translate(0.000000,800.000000) scale(0.100000,-0.100000)"
fill="#000000" stroke="none">
<path d="M3600 7730 c-19 -5 -64 -11 -100 -15 -209 -20 -524 -91 -710 -160
-25 -9 -49 -18 -55 -19 -5 -2 -35 -14 -65 -28 -30 -14 -77 -33 -105 -42 -138
-46 -632 -325 -734 -415 -13 -12 -27 -21 -32 -21 -4 0 -38 -25 -76 -56 -37
-31 -92 -72 -121 -90 -85 -55 -400 -376 -545 -554 -59 -74 -218 -308 -290
-428 -104 -174 -277 -543 -277 -591 0 -9 -4 -21 -9 -26 -5 -6 -39 -116 -75
-245 -68 -241 -120 -474 -131 -590 -4 -36 -9 -76 -11 -90 -12 -68 -16 -522 -6
-600 7 -47 14 -112 17 -145 15 -166 24 -225 81 -490 21 -103 60 -235 83 -287
16 -35 44 -110 64 -168 148 -433 459 -925 792 -1255 102 -100 261 -243 331
-297 16 -12 31 -25 34 -28 7 -8 185 -148 230 -181 151 -108 617 -359 669 -359
12 0 32 -6 44 -14 27 -17 199 -79 287 -102 36 -10 68 -23 72 -29 4 -7 20 -12
36 -13 16 0 56 -8 89 -16 62 -16 284 -60 358 -71 149 -22 190 -27 270 -33 114
-9 492 -9 610 0 50 4 144 16 210 27 532 93 851 203 1303 448 153 82 393 236
412 263 3 4 43 33 90 63 47 31 92 63 100 70 51 46 274 285 365 392 28 32 55
63 60 69 80 84 258 334 367 517 234 387 395 837 472 1314 6 38 14 108 22 210
3 44 9 85 12 90 10 15 11 465 2 516 -4 24 -11 76 -14 114 -25 263 -56 426
-128 665 -85 285 -146 446 -234 621 -54 109 -266 464 -333 559 -141 200 -439
517 -605 645 -21 17 -44 35 -50 40 -81 77 -273 214 -428 307 -337 202 -507
277 -903 397 -129 39 -366 97 -430 105 -27 4 -57 9 -65 11 -57 17 -886 30
-950 15z m710 -64 c58 -4 114 -9 125 -11 11 -2 45 -7 75 -10 30 -3 66 -7 80
-10 14 -2 41 -6 61 -9 43 -6 323 -78 424 -108 124 -37 341 -127 542 -224 72
-35 134 -64 137 -64 10 0 220 -129 301 -186 224 -155 281 -203 506 -425 202
-200 338 -359 499 -588 47 -66 138 -225 195 -341 133 -270 249 -563 285 -723
10 -45 30 -134 44 -197 31 -134 31 -137 51 -255 12 -72 15 -181 14 -535 0
-245 -5 -466 -9 -490 -25 -125 -125 -519 -161 -634 -55 -171 -98 -273 -219
-521 -124 -253 -306 -529 -431 -656 -9 -9 -35 -41 -57 -70 -45 -61 -221 -235
-357 -355 -256 -225 -552 -426 -810 -548 -350 -166 -820 -309 -1090 -331 -38
-4 -88 -8 -110 -10 -205 -21 -572 -27 -715 -12 -221 23 -292 32 -410 52 -88
15 -318 78 -450 123 -405 139 -798 353 -1127 614 -281 223 -589 571 -799 903
-228 360 -357 659 -457 1060 -54 214 -87 384 -96 487 -9 110 -7 775 3 833 76
441 120 638 179 795 115 302 298 658 450 875 168 239 225 302 562 626 155 149
224 206 352 292 110 75 386 247 396 247 2 0 63 27 133 61 195 93 291 127 574
209 329 95 481 122 770 136 69 4 126 7 127 8 5 4 326 -2 413 -8z"/>
<path d="M3260 7337 c-3 -3 -45 -7 -95 -10 -344 -22 -747 -160 -1063 -364 -79
-51 -222 -153 -249 -177 -6 -6 -33 -29 -60 -51 -112 -92 -297 -277 -410 -410
-458 -540 -770 -1288 -840 -2020 -15 -160 -8 -600 12 -705 2 -9 6 -43 10 -75
4 -33 18 -116 32 -185 96 -488 266 -892 551 -1310 121 -178 184 -252 382 -451
324 -324 545 -487 915 -672 356 -178 684 -281 1091 -342 145 -21 184 -23 439
-20 154 2 291 6 305 8 14 3 54 8 90 12 36 4 72 8 80 10 1002 182 1997 837
2428 1600 141 249 246 559 296 875 3 19 7 44 10 55 2 11 7 45 10 76 4 31 8 65
10 75 2 11 7 53 11 94 3 41 9 98 11 125 12 122 6 468 -11 595 -16 123 -37 254
-50 310 -46 194 -157 499 -277 760 -17 36 -56 124 -88 195 -32 72 -72 160 -89
198 -17 37 -31 70 -31 73 0 2 -25 55 -56 117 -44 88 -165 282 -239 383 -6 9
-4 27 6 56 18 48 16 75 -7 123 -27 58 -98 77 -181 50 -18 -6 -34 4 -85 52 -52
49 -136 121 -219 187 -209 168 -555 364 -838 475 -304 120 -677 219 -956 256
-27 3 -63 8 -80 10 -16 3 -50 7 -75 10 -54 7 -684 18 -690 12z m525 -52 c152
-11 319 -30 430 -50 188 -32 355 -72 530 -127 425 -132 851 -353 1167 -605
119 -95 228 -198 228 -217 5 -117 21 -149 87 -178 37 -16 50 -18 71 -9 13 7
26 10 27 9 1 -2 36 -52 76 -113 138 -204 175 -273 278 -513 34 -78 82 -186
107 -240 231 -490 342 -837 381 -1189 16 -141 8 -679 -11 -793 -3 -14 -7 -44
-10 -68 -12 -91 -59 -335 -82 -427 -31 -119 -87 -282 -134 -386 -218 -484
-677 -954 -1273 -1303 -92 -54 -348 -186 -361 -186 -3 0 -29 -11 -58 -24 -151
-69 -444 -166 -608 -201 -8 -2 -36 -8 -63 -14 -26 -6 -64 -14 -85 -17 -20 -3
-42 -7 -49 -9 -6 -2 -38 -7 -70 -10 -32 -4 -87 -11 -123 -15 -83 -10 -455 -10
-540 0 -36 4 -92 11 -125 14 -283 28 -676 137 -960 265 -318 144 -643 351
-875 557 -390 346 -710 796 -906 1276 -123 299 -223 710 -241 988 -13 201 -6
681 11 709 2 3 7 33 10 66 15 137 81 418 143 610 141 435 354 826 652 1195 91
112 285 312 391 402 252 214 561 391 863 494 156 53 427 101 631 111 66 3 122
6 123 7 5 4 289 -3 368 -9z m2517 -1017 c30 -24 31 -56 4 -83 -14 -14 -29 -25
-33 -25 -17 0 -63 48 -63 65 0 44 57 70 92 43z"/>
<path d="M3297 7084 c-1 -1 -42 -4 -92 -7 -49 -4 -103 -9 -120 -12 -16 -3 -43
-7 -60 -10 -55 -9 -71 -13 -190 -45 -290 -78 -545 -204 -794 -393 -87 -66
-288 -256 -372 -352 -207 -236 -415 -583 -537 -895 -90 -229 -177 -550 -207
-760 -3 -25 -8 -52 -10 -60 -2 -8 -7 -40 -10 -70 -4 -30 -8 -66 -10 -80 -24
-177 -25 -641 -1 -765 2 -11 7 -42 10 -68 4 -27 9 -59 12 -70 2 -12 9 -49 15
-82 42 -239 129 -495 271 -804 l71 -153 -17 -47 c-20 -57 -20 -64 1 -108 19
-40 77 -72 130 -73 36 0 50 -12 95 -78 139 -206 449 -508 718 -699 236 -168
527 -315 816 -411 203 -68 364 -107 529 -127 28 -4 61 -8 75 -11 141 -23 631
-23 805 1 17 2 53 7 80 10 55 5 73 8 190 31 224 44 504 132 697 219 l116 52
27 -23 c32 -27 74 -38 116 -29 43 10 99 66 100 102 1 28 5 68 7 89 1 6 55 51
119 100 106 80 282 245 358 334 286 336 494 783 561 1206 3 20 8 46 10 58 2
11 7 46 10 76 3 30 7 69 9 85 6 43 6 488 0 563 -19 236 -101 434 -340 827
-206 339 -269 476 -366 808 -156 529 -212 650 -373 811 -99 99 -100 100 -311
241 -368 246 -582 346 -948 446 -134 36 -573 135 -643 145 -27 3 -51 7 -54 9
-19 11 -481 29 -493 19z m468 -48 c33 -4 71 -9 85 -11 14 -3 41 -7 60 -10 190
-31 763 -186 925 -250 250 -99 740 -407 887 -557 69 -70 150 -188 188 -272 31
-68 114 -319 185 -556 106 -353 188 -524 434 -905 24 -38 74 -128 111 -200
131 -258 160 -411 155 -825 -1 -140 -5 -264 -8 -275 -2 -11 -8 -47 -12 -80 -4
-32 -9 -68 -11 -80 -2 -11 -9 -47 -15 -80 -46 -261 -176 -596 -319 -825 -60
-97 -185 -264 -244 -329 -154 -166 -409 -381 -453 -381 -10 0 -40 7 -67 15
-53 16 -86 14 -121 -9 -30 -20 -55 -76 -55 -124 l0 -39 -157 -66 c-168 -70
-323 -124 -456 -158 -99 -25 -99 -25 -262 -54 -16 -2 -68 -10 -115 -16 -47 -6
-95 -12 -108 -14 -99 -16 -454 -22 -617 -11 -96 6 -129 9 -205 20 -19 3 -55 8
-80 11 -73 10 -256 53 -381 90 -481 142 -915 401 -1275 760 -145 145 -191 195
-259 280 -62 76 -68 85 -92 113 -28 33 -28 42 -3 85 40 67 31 126 -27 177 -24
21 -37 25 -89 23 l-61 -2 -71 147 c-91 189 -197 465 -218 566 -2 10 -8 33 -13
50 -21 69 -64 286 -76 390 -13 112 -14 627 -1 731 3 28 8 70 11 95 52 424 166
800 355 1175 271 539 657 943 1127 1179 108 54 317 140 365 150 13 3 55 14 95
26 94 27 203 46 289 49 38 1 70 4 71 5 6 6 472 -2 528 -8z m-2349 -4647 c20
-17 17 -52 -6 -77 -27 -28 -41 -28 -69 2 -49 52 20 121 75 75z m4245 -1070
c28 -53 -36 -105 -73 -59 -24 30 -20 61 11 76 28 14 48 9 62 -17z"/>
<path d="M3348 6785 c-2 -1 -46 -6 -98 -10 -52 -3 -97 -8 -100 -10 -3 -1 -30
-6 -60 -9 -326 -38 -704 -205 -982 -435 -159 -132 -356 -366 -467 -554 -169
-289 -293 -629 -360 -992 -27 -145 -37 -214 -46 -320 -12 -147 -14 -216 -15
-421 0 -257 5 -332 36 -499 34 -179 31 -165 74 -315 156 -547 471 -1012 951
-1405 113 -92 312 -217 474 -298 225 -112 559 -225 745 -251 25 -3 83 -13 130
-21 65 -10 157 -13 385 -10 309 4 331 5 475 32 47 8 99 17 115 20 56 8 303 82
397 118 51 20 98 37 103 38 53 14 299 140 422 217 210 132 450 337 602 515 66
77 190 269 247 381 74 147 141 372 163 554 10 74 7 320 -4 395 -18 125 -81
348 -119 420 -22 42 -20 59 9 75 14 7 34 33 46 58 20 41 21 47 7 91 -20 67
-63 94 -143 89 l-60 -3 -30 49 c-30 49 -187 264 -223 308 -11 12 -48 57 -82
98 -34 41 -65 77 -69 80 -4 3 -22 25 -41 50 -19 25 -37 47 -41 50 -23 19 -195
264 -245 350 -67 115 -200 376 -259 510 -138 314 -218 427 -415 585 -273 220
-720 406 -1079 450 -30 4 -63 9 -75 11 -22 5 -363 13 -368 9z m327 -39 c11 -2
52 -7 90 -12 39 -4 72 -8 75 -9 3 -1 19 -4 35 -8 17 -4 41 -9 55 -12 65 -12
92 -19 187 -46 418 -120 808 -370 982 -629 31 -47 85 -152 121 -235 80 -186
219 -463 300 -598 69 -115 249 -362 315 -433 5 -6 56 -67 113 -135 132 -160
223 -287 266 -371 32 -63 33 -69 21 -104 -26 -75 12 -141 96 -169 46 -16 49
-18 64 -73 9 -31 22 -73 30 -94 16 -42 51 -176 65 -248 34 -179 32 -408 -6
-615 -29 -160 -134 -408 -246 -577 -109 -166 -295 -370 -449 -493 -227 -182
-409 -288 -729 -427 -66 -29 -302 -102 -399 -123 -9 -2 -56 -13 -106 -24 -49
-11 -112 -23 -140 -27 -27 -3 -61 -8 -75 -10 -124 -16 -468 -22 -602 -10 -170
15 -414 68 -607 132 -588 197 -1113 600 -1436 1104 -49 76 -57 89 -116 195
-118 207 -267 636 -294 845 -3 25 -8 56 -10 70 -4 27 -14 126 -20 205 -5 61
-5 432 0 495 3 42 7 86 21 220 9 94 44 290 74 415 117 498 355 945 660 1243
269 264 610 445 975 518 80 16 202 34 265 40 41 3 76 7 78 9 5 4 325 -4 347
-9z m2715 -2606 c25 -25 26 -52 3 -72 -31 -26 -50 -28 -72 -4 -55 58 13 132
69 76z"/>
<path d="M3180 6423 c-134 -7 -312 -54 -422 -109 -145 -74 -403 -263 -548
-402 -41 -40 -84 -74 -95 -77 -11 -2 -36 -6 -57 -10 -71 -11 -119 -89 -104
-168 5 -27 -5 -51 -65 -157 -84 -147 -123 -229 -174 -365 -35 -95 -100 -330
-109 -399 -3 -17 -11 -74 -20 -126 -8 -52 -17 -115 -20 -140 -28 -235 -28
-655 -2 -810 3 -14 7 -42 10 -62 60 -402 288 -887 567 -1203 329 -374 797
-661 1254 -771 91 -22 201 -44 240 -49 28 -4 53 -9 56 -11 9 -5 232 -18 319
-17 85 0 277 11 330 18 122 18 185 30 260 46 47 11 95 22 107 24 65 15 252 84
348 129 192 92 363 214 505 362 98 103 120 131 192 239 152 228 244 491 255
727 10 223 -38 382 -175 578 -25 36 -159 180 -297 320 -139 140 -272 278 -296
305 -24 28 -46 52 -49 55 -42 42 -163 226 -209 316 -45 91 -100 255 -118 354
-16 91 -89 401 -114 489 -39 134 -75 212 -139 305 -152 220 -417 411 -713 516
-184 65 -270 81 -447 86 -91 3 -178 6 -195 7 -16 1 -50 1 -75 0z m380 -60
c260 -39 474 -121 686 -264 303 -204 435 -426 528 -889 65 -326 96 -431 172
-583 40 -79 134 -227 168 -263 6 -6 31 -37 56 -67 25 -31 151 -161 281 -290
361 -359 448 -481 494 -693 21 -97 13 -311 -15 -424 -44 -179 -116 -342 -219
-495 -294 -439 -752 -700 -1371 -780 -99 -13 -467 -20 -545 -11 -16 2 -57 7
-90 10 -80 9 -276 51 -382 82 -645 187 -1182 639 -1482 1249 -178 360 -246
662 -246 1095 0 603 120 1094 358 1468 36 57 47 67 71 63 66 -12 95 -8 129 20
59 48 70 105 36 187 l-14 33 65 62 c185 176 420 341 600 421 46 21 150 56 150
51 0 -2 15 1 32 6 18 5 60 12 93 15 33 4 62 8 65 11 10 9 292 -1 380 -14z
m-1447 -631 c23 -20 22 -41 -5 -69 -27 -29 -52 -29 -72 -1 -22 31 -20 45 9 74
25 25 34 25 68 -4z"/>
<path d="M3095 5859 c-188 -26 -355 -90 -474 -182 -54 -42 -184 -167 -231
-222 -88 -103 -181 -264 -250 -430 -37 -90 -104 -301 -116 -365 -3 -14 -9 -41
-14 -60 -5 -19 -12 -53 -15 -75 -3 -22 -8 -49 -10 -60 -26 -121 -26 -620 -1
-745 79 -387 324 -852 611 -1159 293 -315 545 -478 900 -582 105 -31 117 -32
285 -33 252 0 305 7 481 64 341 111 548 264 666 491 41 78 53 91 105 117 59
30 76 66 70 148 -1 11 -18 39 -38 62 -34 40 -37 50 -55 170 -33 216 -82 364
-198 587 -62 120 -194 334 -245 396 -11 14 -27 35 -34 45 -7 10 -42 60 -77
109 -115 161 -177 314 -215 528 -25 148 -28 166 -35 277 -31 449 -237 746
-598 861 -172 55 -371 77 -512 58z m356 -49 c189 -39 369 -127 468 -229 145
-151 229 -358 255 -631 3 -30 8 -86 12 -125 3 -38 8 -77 9 -87 2 -9 7 -38 10
-65 11 -73 43 -209 59 -248 8 -19 13 -35 11 -35 -16 0 112 -217 191 -325 336
-457 479 -766 519 -1127 6 -51 5 -59 -12 -63 -139 -42 -178 -175 -74 -254 17
-13 31 -30 31 -38 0 -49 -129 -227 -220 -303 -109 -92 -257 -171 -425 -229
-214 -75 -480 -99 -675 -62 -153 28 -155 29 -259 68 -440 164 -860 578 -1136
1117 -174 340 -211 500 -212 911 -1 232 7 338 38 495 76 390 248 743 468 960
253 251 577 343 942 270z m1557 -3042 c18 -18 14 -53 -8 -73 -30 -27 -74 -10
-78 29 -5 44 55 75 86 44z"/>
<path d="M3037 5174 c-1 -1 -29 -5 -62 -9 -174 -20 -355 -143 -454 -309 -45
-75 -95 -210 -118 -316 -27 -127 -24 -368 6 -519 43 -218 126 -433 232 -602
27 -43 49 -82 49 -85 0 -13 144 -196 209 -266 140 -150 303 -261 463 -315 74
-25 96 -28 208 -28 107 1 136 5 203 27 177 59 311 170 377 311 57 121 71 194
69 351 -2 162 -15 266 -51 396 -89 325 -344 798 -571 1059 -130 148 -285 272
-365 290 -39 9 -189 20 -195 15z m183 -48 c78 -18 151 -69 256 -178 206 -211
422 -541 545 -828 60 -142 138 -389 154 -490 4 -25 9 -54 12 -65 9 -42 5 -263
-7 -325 -37 -206 -194 -380 -407 -455 -209 -72 -402 -38 -622 109 -108 73
-173 132 -278 254 -185 214 -356 543 -425 820 -20 77 -22 112 -22 312 1 248 8
300 65 436 97 234 272 388 467 411 26 3 49 8 52 10 6 6 176 -3 210 -11z"/>
<path d="M3100 4360 c-90 -15 -170 -110 -187 -222 -11 -69 -6 -209 11 -307 18
-105 50 -163 140 -253 116 -114 292 -165 430 -123 103 31 193 103 218 173 7
21 13 73 13 118 0 75 -3 87 -42 166 -54 108 -132 212 -236 311 -123 117 -224
157 -347 137z m175 -115 c56 -27 161 -125 230 -215 87 -113 132 -236 120 -325
-21 -144 -253 -215 -421 -128 -94 50 -177 173 -200 297 -29 157 14 341 89 386
40 25 114 19 182 -15z"/>
</g>
</svg>
